<?xml version="1.0" encoding="iso-8859-1"?>
<!-- Generator: Adobe Illustrator 19.0.0, SVG Export Plug-In . SVG Version: 6.00 Build 0)  -->
<svg xmlns="http://www.w3.org/2000/svg" xmlns:xlink="http://www.w3.org/1999/xlink" version="1.1" id="Capa_1" x="0px" y="0px" viewBox="0 0 512 512" style="enable-background:new 0 0 512 512;" xml:space="preserve" width="512px" height="512px">
<g>
	<g>
		<path d="M484.923,431.638c-4.21,0-7.621,3.412-7.621,7.621V487.1l-60.682-55.409c-1.405-1.282-3.238-1.994-5.14-1.994H211.189    c-17.141,0-31.086-13.945-31.086-31.086V269.765c0-4.209-3.412-7.621-7.621-7.621s-7.621,3.412-7.621,7.621v128.845    c0,25.545,20.783,46.328,46.328,46.328h197.337l71.259,65.067c1.433,1.308,3.275,1.994,5.142,1.994    c1.038,0,2.086-0.212,3.073-0.648c2.763-1.218,4.546-3.954,4.546-6.973v-65.12C492.544,435.049,489.133,431.638,484.923,431.638z" fill="#c0e0ff"/>
	</g>
</g>
<g>
	<g>
		<path d="M446.216,190.412h-81.67c-4.21,0-7.621,3.412-7.621,7.621c0,4.209,3.411,7.621,7.621,7.621h81.67    c17.141,0,31.086,13.945,31.086,31.086v177.114c0,4.209,3.411,7.621,7.621,7.621c4.21,0,7.621-3.412,7.621-7.621V236.739    C492.544,211.195,471.762,190.412,446.216,190.412z" fill="#c0e0ff"/>
	</g>
</g>
<g>
	<g>
		<path d="M300.812,0H65.783C40.237,0,19.455,20.783,19.455,46.328v37.026c0,4.209,3.412,7.621,7.621,7.621s7.621-3.412,7.621-7.621    V46.328c0.001-17.141,13.945-31.086,31.086-31.086h235.028c17.141,0,31.086,13.945,31.086,31.086v161.87    c0,17.141-13.945,31.086-31.086,31.086H100.518c-1.902,0-3.734,0.711-5.139,1.993l-60.683,55.41V108.759    c0-4.209-3.412-7.621-7.621-7.621c-4.209,0-7.621,3.412-7.621,7.621v205.207c0,3.02,1.782,5.754,4.546,6.973    c0.988,0.436,2.034,0.648,3.074,0.648c1.866,0,3.708-0.686,5.141-1.994l71.26-65.067h197.337    c25.544,0.001,46.327-20.782,46.327-46.327V46.328C347.139,20.783,326.356,0,300.812,0z" fill="#c0e0ff"/>
	</g>
</g>
<g>
	<g>
		<path d="M290.173,69.13H79.846c-4.209,0-7.621,3.412-7.621,7.621c0,4.209,3.412,7.621,7.621,7.621h210.327    c4.21,0,7.621-3.412,7.621-7.621C297.794,72.542,294.383,69.13,290.173,69.13z" fill="#c0e0ff"/>
	</g>
</g>
<g>
	<g>
		<path d="M290.173,120.239h-50.801c-4.209,0-7.621,3.412-7.621,7.621c0,4.209,3.412,7.621,7.621,7.621h50.801    c4.21,0,7.621-3.412,7.621-7.621C297.794,123.651,294.383,120.239,290.173,120.239z" fill="#c0e0ff"/>
	</g>
</g>
<g>
	<g>
		<path d="M213.968,120.239H79.846c-4.209,0-7.621,3.412-7.621,7.621c0,4.209,3.412,7.621,7.621,7.621h134.122    c4.209,0,7.621-3.412,7.621-7.621C221.589,123.651,218.177,120.239,213.968,120.239z" fill="#c0e0ff"/>
	</g>
</g>
<g>
	<g>
		<path d="M195.679,171.347H79.846c-4.209,0-7.621,3.412-7.621,7.621c0,4.209,3.412,7.621,7.621,7.621h115.833    c4.209,0,7.621-3.412,7.621-7.621C203.3,174.759,199.888,171.347,195.679,171.347z" fill="#c0e0ff"/>
	</g>
</g>
<g>
	<g>
		<path d="M433.866,269.499H223.539c-4.209,0-7.621,3.412-7.621,7.621s3.412,7.621,7.621,7.621h210.327    c4.21,0,7.621-3.412,7.621-7.621S438.076,269.499,433.866,269.499z" fill="#c0e0ff"/>
	</g>
</g>
<g>
	<g>
		<path d="M433.866,320.608H303.385c-4.21,0-7.621,3.412-7.621,7.621c0,4.209,3.411,7.621,7.621,7.621h130.481    c4.21,0,7.621-3.412,7.621-7.621C441.487,324.02,438.076,320.608,433.866,320.608z" fill="#c0e0ff"/>
	</g>
</g>
<g>
	<g>
		<path d="M277.98,320.608h-54.441c-4.209,0-7.621,3.412-7.621,7.621c0,4.209,3.412,7.621,7.621,7.621h54.441    c4.21,0,7.621-3.412,7.621-7.621C285.601,324.02,282.19,320.608,277.98,320.608z" fill="#c0e0ff"/>
	</g>
</g>
<g>
	<g>
		<path d="M339.371,371.716H223.539c-4.209,0-7.621,3.412-7.621,7.621c0,4.209,3.412,7.621,7.621,7.621h115.832    c4.21,0,7.621-3.412,7.621-7.621C346.992,375.128,343.581,371.716,339.371,371.716z" fill="#c0e0ff"/>
	</g>
</g>
<g>
</g>
<g>
</g>
<g>
</g>
<g>
</g>
<g>
</g>
<g>
</g>
<g>
</g>
<g>
</g>
<g>
</g>
<g>
</g>
<g>
</g>
<g>
</g>
<g>
</g>
<g>
</g>
<g>
</g>
</svg>
