<?xml version="1.0" encoding="iso-8859-1"?>
<!-- Generator: Adobe Illustrator 19.0.0, SVG Export Plug-In . SVG Version: 6.00 Build 0)  -->
<svg xmlns="http://www.w3.org/2000/svg" xmlns:xlink="http://www.w3.org/1999/xlink" version="1.1" id="Capa_1" x="0px" y="0px" viewBox="0 0 512 512" style="enable-background:new 0 0 512 512;" xml:space="preserve" width="512px" height="512px">
<g>
	<g>
		<path d="M105.552,86h-0.27c-5.523,0-10,4.477-10,10s4.477,10,10,10h0.27c5.523,0,10-4.477,10-10S111.075,86,105.552,86z" fill="#c0e0ff"/>
	</g>
</g>
<g>
	<g>
		<path d="M482,86H145.517c-5.523,0-10,4.477-10,10s4.477,10,10,10H482c5.514,0,10,4.486,10,10v39.477    c0,14.931-8.352,28.256-21.797,34.773l-195.07,112.484c-11.982,6.886-26.825,6.783-38.735-0.268    c-0.032-0.019-0.063-0.037-0.094-0.055l-98.065-56.618l-0.097-0.057c-0.425-0.251-0.866-0.468-1.318-0.65l-97.502-56.295    c-11.833-6.851-19.193-19.62-19.207-33.325c0-0.488-0.048-0.964-0.116-1.433V116c0-5.514,4.486-10,10-10h46.552    c5.523,0,10-4.477,10-10s-4.477-10-10-10H30C13.458,86,0,99.458,0,116v280c0,16.542,13.458,30,30,30h452    c11.159,0,20.908-6.129,26.075-15.194c0.015-0.026,0.031-0.053,0.046-0.079C510.586,406.373,512,401.35,512,396V116    C512,99.458,498.542,86,482,86z M20,389.468V199.4c2.85,2.514,5.962,4.767,9.312,6.706l98.69,56.981    c0.393,0.227,0.8,0.424,1.217,0.592l20.405,11.781l-54.628,48.136c-0.51,0.307-0.996,0.662-1.45,1.063L20,389.468z M482,406H31.49    l73.871-65.096c0.556-0.333,1.083-0.724,1.573-1.168l60.966-53.723l58.366,33.698c9.153,5.405,19.441,8.111,29.734,8.111    c10.054,0,20.112-2.583,29.114-7.756l61.407-35.451l59.296,52.247c0.188,0.165,0.381,0.323,0.581,0.474    c0.895,0.677,1.854,1.464,2.84,2.329l74.983,66.078C483.506,405.906,482.765,406,482,406z M492.001,385.94l-69.55-61.291    c-1.253-1.101-2.489-2.119-3.677-3.03L364.8,274.063l16.269-9.392c0.945-0.475,1.902-0.993,2.929-1.583l95.271-55.007    c4.658-2.296,8.922-5.19,12.732-8.551V385.94z" fill="#c0e0ff"/>
	</g>
</g>
<g>
	<g>
		<path d="M293.268,209.41h-31.035c-5.523,0-10,4.477-10,10c0,5.523,4.477,10,10,10h31.035c5.523,0,10-4.477,10-10    C303.268,213.887,298.791,209.41,293.268,209.41z" fill="#c0e0ff"/>
	</g>
</g>
<g>
	<g>
		<path d="M233.503,209.41h-0.27c-5.523,0-10,4.477-10,10c0,5.523,4.477,10,10,10h0.27c5.523,0,10-4.477,10-10    C243.503,213.887,239.026,209.41,233.503,209.41z" fill="#c0e0ff"/>
	</g>
</g>
<g>
	<g>
		<path d="M293.268,176.411h-74.535c-5.523,0-10,4.477-10,10c0,5.523,4.477,10,10,10h74.535c5.523,0,10-4.477,10-10    C303.268,180.888,298.791,176.411,293.268,176.411z" fill="#c0e0ff"/>
	</g>
</g>
<g>
</g>
<g>
</g>
<g>
</g>
<g>
</g>
<g>
</g>
<g>
</g>
<g>
</g>
<g>
</g>
<g>
</g>
<g>
</g>
<g>
</g>
<g>
</g>
<g>
</g>
<g>
</g>
<g>
</g>
</svg>
