<?xml version="1.0"?>
<svg xmlns="http://www.w3.org/2000/svg" height="512px" viewBox="0 0 512.00009 512" width="512px"><path d="m451.007812 317.300781c-13.75-13.75-32.027343-21.320312-51.46875-21.320312-19.441406 0-37.71875 7.570312-51.46875 21.320312l-8.71875 8.71875c-.003906 0-.003906 0-.003906 0v.003907l-17.984375 17.980468c-10.351562 10.351563-26.628906 11.082032-37.867187 1.707032-42.394532-35.375-81.828125-74.8125-117.207032-117.207032-9.378906-11.238281-8.644531-27.519531 1.707032-37.867187l26.703125-26.707031c28.382812-28.378907 28.382812-74.558594 0-102.9375l-39.671875-39.675782c-13.746094-13.746094-32.027344-21.316406-51.46875-21.316406s-37.71875 7.570312-51.46875 21.316406c-29.648438 29.652344-47.925782 68.992188-51.460938 110.777344-3.53125 41.78125 7.875 83.632812 32.125 117.84375 63.113282 89.039062 140.265625 166.191406 229.308594 229.308594 30.132812 21.359375 66.1875 32.757812 102.90625 32.753906 4.96875 0 9.957031-.207031 14.9375-.628906 41.785156-3.535156 81.125-21.8125 110.773438-51.460938 13.75-13.746094 21.320312-32.027344 21.320312-51.46875s-7.570312-37.71875-21.320312-51.46875zm-177.378906 145.628907c-87.195312-61.808594-162.75-137.363282-224.558594-224.558594-44.644531-62.984375-37.425781-148.320313 17.164063-202.910156 9.96875-9.96875 23.222656-15.460938 37.324219-15.460938 14.101562 0 27.355468 5.492188 37.324218 15.460938l39.675782 39.675781c20.582031 20.582031 20.582031 54.070312 0 74.648437l-1.648438 1.652344-65.175781-65.175781c-3.902344-3.902344-10.234375-3.902344-14.140625 0-3.90625 3.90625-3.90625 10.238281 0 14.144531l65.171875 65.171875-10.914063 10.914063c-17.71875 17.71875-18.972656 45.589843-2.917968 64.828124 36.144531 43.3125 76.433594 83.601563 119.746094 119.746094 19.238281 16.054688 47.109374 14.800782 64.828124-2.917968l10.910157-10.914063 113.21875 113.214844c-54.214844 40.816406-129.203125 42.746093-186.007813 2.480469zm202.910156-17.164063c-.5625.5625-1.132812 1.113281-1.703124 1.664063-.1875-.226563-.386719-.449219-.597657-.664063l-113.675781-113.671875 1.652344-1.652344c20.578125-20.582031 54.070312-20.582031 74.652344 0l39.671874 39.671875c20.582032 20.582031 20.582032 54.074219 0 74.652344zm0 0" fill="#c0e0ff"/><path d="m79.304688 55.980469c-2.628907 0-5.207032 1.070312-7.066407 2.929687-1.863281 1.859375-2.933593 4.441406-2.933593 7.070313 0 2.628906 1.070312 5.210937 2.933593 7.070312 1.859375 1.859375 4.4375 2.929688 7.066407 2.929688 2.632812 0 5.210937-1.070313 7.070312-2.929688 1.859375-1.871093 2.929688-4.441406 2.929688-7.070312 0-2.628907-1.066407-5.210938-2.929688-7.070313-1.859375-1.859375-4.4375-2.929687-7.070312-2.929687zm0 0" fill="#c0e0ff"/><path d="m218.308594 367.914062c-20.488282-18.226562-40.367188-37.621093-59.089844-57.632812-3.773438-4.035156-10.101562-4.246094-14.136719-.472656-4.03125 3.773437-4.242187 10.101562-.46875 14.132812 19.136719 20.460938 39.457031 40.28125 60.398438 58.917969 1.90625 1.695313 4.28125 2.527344 6.644531 2.527344 2.757812 0 5.5-1.132813 7.476562-3.351563 3.667969-4.128906 3.300782-10.449218-.824218-14.121094zm0 0" fill="#c0e0ff"/><path d="m133.257812 281.300781c-3.574218-4.207031-9.886718-4.714843-14.09375-1.136719-4.207031 3.578126-4.71875 9.890626-1.136718 14.097657l.246094.289062c1.980468 2.265625 4.75 3.425781 7.539062 3.425781 2.332031 0 4.675781-.8125 6.570312-2.464843 4.164063-3.628907 4.59375-9.945313.964844-14.109375zm0 0" fill="#c0e0ff"/><path d="m411.636719 182.066406h-155.640625c-5.519532 0-10 4.476563-10 10 0 5.523438 4.480468 10 10 10h145.640625v18c0 3.683594 2.027343 7.070313 5.273437 8.8125 1.480469.792969 3.105469 1.1875 4.726563 1.1875 1.933593 0 3.863281-.558594 5.53125-1.667968l90.363281-60c2.789062-1.855469 4.46875-4.980469 4.46875-8.332032 0-3.351562-1.679688-6.476562-4.46875-8.332031l-90.363281-60c-3.066407-2.035156-7.007813-2.222656-10.257813-.480469-3.246094 1.742188-5.273437 5.128906-5.273437 8.8125v18h-145.640625c-5.519532 0-10 4.476563-10 10 0 5.523438 4.480468 10 10 10h155.640625c5.523437 0 10-4.476562 10-10v-9.355468l62.285156 41.355468-62.285156 41.355469v-9.355469c0-5.523437-4.476563-10-10-10zm0 0" fill="#c0e0ff"/></svg>
