<?xml version="1.0" encoding="iso-8859-1"?>
<!-- Generator: Adobe Illustrator 19.0.0, SVG Export Plug-In . SVG Version: 6.00 Build 0)  -->
<svg version="1.1" id="Layer_1" xmlns="http://www.w3.org/2000/svg" xmlns:xlink="http://www.w3.org/1999/xlink" x="0px" y="0px"
	 viewBox="0 0 512.004 512.004" style="enable-background:new 0 0 512.004 512.004;" xml:space="preserve">
<g>
	<path style="fill:#9BCC5C;" d="M235.017,327.315c-0.889,0.889-1.974,1.583-3.186,2.016c-20.882,7.431-44.433,2.18-60.001-13.384
		c-15.568-15.562-20.822-39.105-13.387-59.98c0.855-2.406,2.796-4.344,5.203-5.2c20.881-7.433,44.435-2.182,60.001,13.382
		c15.568,15.563,20.823,39.106,13.387,59.982C236.601,325.341,235.908,326.427,235.017,327.315
		C234.128,328.205,235.908,326.427,235.017,327.315z"/>
	<path style="fill:#9BCC5C;" d="M276.987,327.315c0.889,0.889,1.974,1.583,3.186,2.016c20.882,7.431,44.433,2.18,60.002-13.384
		c15.567-15.562,20.822-39.105,13.387-59.98c-0.854-2.406-2.797-4.344-5.201-5.2c-20.882-7.433-44.436-2.182-60.002,13.382
		c-15.568,15.563-20.823,39.106-13.387,59.982C275.404,325.341,276.097,326.427,276.987,327.315
		C277.878,328.205,276.097,326.427,276.987,327.315z"/>
</g>
<path style="opacity:0.1;enable-background:new    ;" d="M291.386,329.331c-1.213-0.433-2.297-1.126-3.186-2.016
	c-0.891-0.887-1.583-1.973-2.016-3.184c-7.435-20.876-2.181-44.42,13.387-59.982c9.521-9.52,22.032-15.173,35.09-16.434
	c-16.918-1.651-34.074,4.208-46.302,16.434c-15.568,15.563-20.823,39.106-13.387,59.982c0.433,1.211,1.125,2.297,2.016,3.184
	c0.889,0.889,1.974,1.583,3.186,2.016c8.109,2.886,16.619,3.85,24.909,3.05C300.465,331.931,295.863,330.924,291.386,329.331z"/>
<path style="fill:#493B33;" d="M307.939,296.375c-3.158-3.157-8.276-3.158-11.433-0.001l-40.503,40.491l-40.503-40.491
	c-3.158-3.156-8.276-3.156-11.433,0.001c-3.157,3.158-3.157,8.277,0.001,11.433l46.637,46.623c1.579,1.578,3.648,2.367,5.716,2.367
	c2.069,0,4.139-0.79,5.718-2.369c0.757-0.757,45.8-46.621,45.8-46.621C311.095,304.651,311.096,299.533,307.939,296.375z"/>
<path style="fill:#C6DD76;" d="M256.003,260.086c-1.258,0.001-2.515-0.276-3.679-0.827c-20.023-9.505-32.96-29.867-32.96-51.877
	s12.938-42.371,32.96-51.876c2.307-1.097,5.049-1.095,7.357-0.001c20.024,9.505,32.961,29.867,32.961,51.877
	c0,22.009-12.94,42.372-32.961,51.877C258.518,259.811,257.261,260.088,256.003,260.086
	C254.745,260.087,257.261,260.088,256.003,260.086z"/>
<path style="fill:#493B33;" d="M307.939,296.375c-3.158-3.157-8.276-3.158-11.433-0.001l-40.503,40.491l-40.503-40.491
	c-3.158-3.156-8.276-3.156-11.433,0.001c-3.157,3.158-3.157,8.277,0.001,11.433l46.637,46.623c1.579,1.578,3.648,2.367,5.716,2.367
	c2.069,0,4.139-0.79,5.718-2.369c0.757-0.757,45.8-46.621,45.8-46.621C311.095,304.651,311.096,299.533,307.939,296.375z"/>
<path style="opacity:0.1;enable-background:new    ;" d="M183.041,315.947c-15.568-15.562-20.822-39.105-13.387-59.98
	c0.432-1.214,1.126-2.298,2.016-3.185c0.889-0.889,1.974-1.583,3.186-2.015c4.479-1.595,9.081-2.601,13.701-3.051
	c-8.291-0.8-16.803,0.165-24.911,3.051c-2.405,0.856-4.347,2.793-5.203,5.2c-7.434,20.874-2.181,44.418,13.387,59.98
	c12.229,12.226,29.386,18.085,46.304,16.435C205.074,331.12,192.565,325.467,183.041,315.947
	C167.473,300.384,192.565,325.467,183.041,315.947z"/>
<path style="opacity:0.1;enable-background:new    ;" d="M230.574,207.382c0-21.295,12.112-41.046,31.035-50.915
	c-0.635-0.331-1.278-0.653-1.928-0.962c-2.308-1.094-5.05-1.096-7.357,0.001c-20.023,9.505-32.96,29.866-32.96,51.876
	s12.938,42.372,32.96,51.877c1.164,0.55,2.421,0.827,3.679,0.827c1.258,0.002,2.515-0.275,3.678-0.827
	c0.651-0.308,1.291-0.63,1.927-0.961C242.686,248.429,230.574,228.677,230.574,207.382z"/>
<path style="fill:#635349;" d="M256.003,409.197c-4.465,0-8.084-3.62-8.084-8.084V224.412c0-4.465,3.62-8.084,8.084-8.084
	s8.084,3.62,8.084,8.084v176.701C264.087,405.577,260.467,409.197,256.003,409.197z"/>
<path style="fill:#666666;" d="M234.412,512c-6.814,0-12.338-5.523-12.338-12.337V464.87c-32.189-5.18-63.264-18.007-89.866-37.095
	l-24.509,24.511c-4.751,4.751-12.697,4.751-17.448,0l-30.534-30.533c-4.818-4.818-4.819-12.63,0-17.448l24.318-24.319
	c-19.417-26.595-32.534-57.736-37.931-90.059H12.34c-6.814,0-12.337-5.523-12.337-12.337v-43.18c0-6.814,5.523-12.338,12.337-12.338
	h33.354c5.053-32.633,17.951-64.135,37.299-91.1l-23.276-23.276c-2.314-2.313-3.614-5.452-3.614-8.725
	c0-3.272,1.3-6.409,3.613-8.724l30.533-30.533c2.314-2.313,5.452-3.613,8.724-3.613c3.273,0,6.41,1.3,8.725,3.613l23.084,23.085
	c26.947-19.676,58.515-32.863,91.293-38.137l-0.001-32.326C222.075,5.523,227.598,0,234.412,0h43.18
	c6.814,0,12.338,5.523,12.338,12.337v32.326c32.776,5.274,64.346,18.46,91.293,38.137l23.084-23.085
	c2.314-2.313,5.452-3.613,8.725-3.613c3.272,0,6.409,1.3,8.724,3.613l30.533,30.533c2.313,2.314,3.613,5.452,3.613,8.724
	c0,3.273-1.3,6.41-3.614,8.725l-23.277,23.276c19.349,26.965,32.247,58.466,37.3,91.1h33.354c6.814,0,12.337,5.524,12.337,12.338
	v43.18c0,6.814-5.523,12.338-12.337,12.338h-33.764c-5.397,32.324-18.513,63.466-37.931,90.059l24.318,24.317
	c2.314,2.313,3.614,5.451,3.614,8.725c0,3.272-1.3,6.409-3.613,8.723l-30.533,30.534c-2.313,2.314-5.451,3.614-8.724,3.614
	c-3.272,0-6.41-1.3-8.724-3.613l-24.511-24.51c-26.602,19.089-57.678,31.916-89.866,37.096v34.793
	c0,6.814-5.524,12.337-12.338,12.337h-43.18V512z M256.003,109.803c-79.934,0-144.964,65.03-144.964,144.964
	s65.03,144.964,144.964,144.964s144.964-65.03,144.964-144.964S335.935,109.803,256.003,109.803z"/>
<path style="fill:#474949;" d="M256.003,443.383c-1.13,0-2.255-0.01-3.379-0.03c-4.464-0.08-8.018-3.765-7.936-8.229
	c0.08-4.465,3.773-8.055,8.23-7.936c1.026,0.018,2.055,0.027,3.087,0.027c4.465,0,8.084,3.62,8.084,8.084
	C264.087,439.763,260.467,443.383,256.003,443.383z M331.354,426.631c-3.038,0-5.949-1.721-7.324-4.653
	c-1.896-4.042-0.158-8.857,3.885-10.752c0.93-0.437,1.854-0.881,2.773-1.332c4.01-1.969,8.852-0.318,10.821,3.688
	c1.97,4.006,0.319,8.852-3.689,10.821c-1.007,0.495-2.02,0.981-3.039,1.46C333.673,426.384,332.505,426.631,331.354,426.631z
	 M165.611,418.675c-1.4,0-2.819-0.364-4.111-1.128c-0.971-0.575-1.936-1.158-2.895-1.749c-3.8-2.344-4.982-7.324-2.637-11.124
	c2.343-3.8,7.323-4.984,11.124-2.637c0.878,0.54,1.76,1.074,2.647,1.599c3.842,2.275,5.113,7.233,2.838,11.075
	C171.065,417.258,168.373,418.675,165.611,418.675z M402.829,366.016c-1.583,0-3.183-0.464-4.585-1.431
	c-3.675-2.536-4.596-7.571-2.062-11.246c0.586-0.849,1.165-1.703,1.737-2.562c2.471-3.72,7.49-4.729,11.208-2.259
	c3.719,2.471,4.73,7.489,2.259,11.208c-0.624,0.938-1.256,1.871-1.895,2.798C407.92,364.796,405.396,366.016,402.829,366.016z
	 M100.173,351.564c-2.834,0-5.583-1.493-7.065-4.142c-0.546-0.979-1.086-1.963-1.615-2.952c-2.11-3.934-0.631-8.835,3.304-10.945
	c3.936-2.109,8.836-0.631,10.945,3.304c0.487,0.906,0.98,1.809,1.482,2.705c2.179,3.897,0.785,8.822-3.113,11.001
	C102.862,351.232,101.508,351.564,100.173,351.564z M434.073,277.642c-0.202,0-0.404-0.008-0.609-0.023
	c-4.453-0.331-7.793-4.21-7.462-8.663c0.076-1.025,0.145-2.052,0.203-3.082c0.252-4.458,4.054-7.875,8.528-7.614
	c4.458,0.253,7.866,4.071,7.614,8.528c-0.064,1.126-0.138,2.249-0.22,3.371C441.81,274.406,438.265,277.642,434.073,277.642z
	 M77.471,260.639c-0.052,0-0.104-0.001-0.157-0.002c-4.464-0.085-8.014-3.772-7.929-8.236c0.021-1.125,0.052-2.25,0.093-3.371
	c0.161-4.462,3.913-7.963,8.372-7.787c4.462,0.161,7.948,3.909,7.787,8.372c-0.038,1.029-0.066,2.061-0.086,3.093
	C85.467,257.12,81.864,260.639,77.471,260.639z M416.529,185.572c-2.995,0-5.872-1.671-7.272-4.543
	c-0.45-0.924-0.909-1.843-1.374-2.759c-2.026-3.979-0.444-8.846,3.535-10.872c3.977-2.026,8.845-0.444,10.872,3.535
	c0.509,0.999,1.009,2.003,1.502,3.011c1.956,4.012,0.288,8.852-3.724,10.808C418.925,185.31,417.718,185.572,416.529,185.572z
	 M103.642,170.646c-1.436,0-2.889-0.382-4.205-1.185c-3.811-2.327-5.013-7.302-2.687-11.112c0.588-0.962,1.185-1.919,1.789-2.872
	c2.395-3.767,7.392-4.881,11.16-2.487c3.768,2.395,4.882,7.391,2.487,11.16c-0.553,0.87-1.098,1.745-1.635,2.626
	C109.026,169.268,106.367,170.646,103.642,170.646z M354.949,114.9c-1.549,0-3.114-0.444-4.497-1.372
	c-0.856-0.575-1.717-1.141-2.584-1.7c-3.751-2.421-4.831-7.425-2.408-11.176c2.421-3.752,7.424-4.828,11.176-2.408
	c0.948,0.611,1.889,1.231,2.825,1.859c3.707,2.488,4.696,7.511,2.209,11.217C360.11,113.644,357.552,114.9,354.949,114.9z
	 M171.634,106.095c-2.875,0-5.656-1.536-7.119-4.241c-2.123-3.927-0.66-8.833,3.266-10.956c0.988-0.534,1.981-1.061,2.981-1.577
	c3.965-2.053,8.843-0.5,10.894,3.465s0.501,8.843-3.465,10.895c-0.911,0.472-1.818,0.952-2.721,1.439
	C174.251,105.781,172.933,106.095,171.634,106.095z M266.132,85.07c-0.154,0-0.307-0.004-0.462-0.013
	c-1.025-0.057-2.052-0.107-3.082-0.145c-4.462-0.17-7.94-3.925-7.771-8.386c0.17-4.462,3.934-7.92,8.385-7.771
	c1.128,0.044,2.254,0.096,3.377,0.16c4.458,0.252,7.868,4.069,7.617,8.526C273.953,81.743,270.388,85.07,266.132,85.07z"/>
<g>
</g>
<g>
</g>
<g>
</g>
<g>
</g>
<g>
</g>
<g>
</g>
<g>
</g>
<g>
</g>
<g>
</g>
<g>
</g>
<g>
</g>
<g>
</g>
<g>
</g>
<g>
</g>
<g>
</g>
</svg>
