<?xml version="1.0"?>
<svg xmlns="http://www.w3.org/2000/svg" height="512px" viewBox="-48 1 511 511.999" width="512px" class=""><g><path d="m36.734375 36.175781h342.222656v439.652344h-342.222656zm0 0" fill="#00e0ff" data-original="#00E0FF" class="active-path" style="fill:#42A5F5" data-old_color="#00E0FF"/><path d="m131.214844 133.65625h153.894531v26.738281h-153.894531zm0 0" fill="#40e464" data-original="#40E464"/><path d="m131.214844 242.632812h153.894531v26.734376h-153.894531zm0 0" fill="#40e464" data-original="#40E464"/><path d="m131.214844 351.605469h153.894531v26.738281h-153.894531zm0 0" fill="#40e464" data-original="#40E464"/><g fill="#2c6a9b"><path d="m126.671875 185.074219h-114.46875c-6.464844 0-11.703125-5.242188-11.703125-11.707031v-52.683594c0-6.464844 5.238281-11.703125 11.703125-11.703125h114.46875c6.460937 0 11.703125 5.238281 11.703125 11.703125v52.683594c0 6.464843-5.242188 11.707031-11.703125 11.707031zm0 0" data-original="#000000" class="" style="fill:#1976D2" data-old_color="#000000"/><path d="m126.671875 294.046875h-114.46875c-6.464844 0-11.703125-5.238281-11.703125-11.703125v-52.6875c0-6.460938 5.238281-11.703125 11.703125-11.703125h114.46875c6.460937 0 11.703125 5.242187 11.703125 11.703125v52.6875c0 6.464844-5.242188 11.703125-11.703125 11.703125zm0 0" data-original="#000000" class="" style="fill:#1976D2" data-old_color="#000000"/><path d="m126.671875 403.019531h-114.46875c-6.464844 0-11.703125-5.238281-11.703125-11.703125v-52.683594c0-6.464843 5.238281-11.703124 11.703125-11.703124h114.46875c6.460937 0 11.703125 5.238281 11.703125 11.703124v52.683594c0 6.464844-5.242188 11.703125-11.703125 11.703125zm0 0" data-original="#000000" class="" style="fill:#1976D2" data-old_color="#000000"/><path d="m389.730469 11.703125v52.695313c0 6.460937-5.230469 11.703124-11.703125 11.703124h-365.824219c-6.460937 0-11.703125-5.242187-11.703125-11.703124v-52.695313c0-6.460937 5.242188-11.703125 11.703125-11.703125h365.824219c6.472656 0 11.703125 5.242188 11.703125 11.703125zm0 0" data-original="#000000" class="" style="fill:#1976D2" data-old_color="#000000"/><path d="m389.730469 120.683594v52.683594c0 6.460937-5.230469 11.703124-11.703125 11.703124h-89.011719c-6.460937 0-11.703125-5.242187-11.703125-11.703124v-52.683594c0-6.460938 5.242188-11.703125 11.703125-11.703125h89.011719c6.472656 0 11.703125 5.242187 11.703125 11.703125zm0 0" data-original="#000000" class="" style="fill:#1976D2" data-old_color="#000000"/><path d="m389.730469 229.652344v52.695312c0 6.460938-5.230469 11.703125-11.703125 11.703125h-89.011719c-6.460937 0-11.703125-5.242187-11.703125-11.703125v-52.695312c0-6.460938 5.242188-11.703125 11.703125-11.703125h89.011719c6.472656 0 11.703125 5.242187 11.703125 11.703125zm0 0" data-original="#000000" class="" style="fill:#1976D2" data-old_color="#000000"/><path d="m389.730469 338.632812v52.683594c0 6.460938-5.230469 11.703125-11.703125 11.703125h-89.011719c-6.460937 0-11.703125-5.242187-11.703125-11.703125v-52.683594c0-6.460937 5.242188-11.703124 11.703125-11.703124h89.011719c6.472656 0 11.703125 5.242187 11.703125 11.703124zm0 0" data-original="#000000" class="" style="fill:#1976D2" data-old_color="#000000"/></g><path d="m415.191406 11.703125v52.695313c0 6.460937-5.246094 11.703124-11.707031 11.703124h-25.457031c6.472656 0 11.707031-5.242187 11.707031-11.703124v-52.695313c-.003906-6.460937-5.234375-11.703125-11.707031-11.703125h25.457031c6.460937 0 11.707031 5.242188 11.707031 11.703125zm0 0" fill="#1a5a84" data-original="#1A5A84" class="" style="fill:#135AA1" data-old_color="#145FA9"/><path d="m415.191406 120.683594v52.683594c0 6.460937-5.246094 11.703124-11.707031 11.703124h-25.457031c6.472656 0 11.707031-5.242187 11.707031-11.703124v-52.683594c0-6.460938-5.234375-11.703125-11.707031-11.703125h25.457031c6.460937 0 11.707031 5.242187 11.707031 11.703125zm0 0" fill="#1a5a84" data-original="#1A5A84" class="" style="fill:#135AA1" data-old_color="#145FA9"/><path d="m415.191406 229.652344v52.695312c0 6.460938-5.246094 11.703125-11.707031 11.703125h-25.457031c6.472656 0 11.707031-5.242187 11.707031-11.703125v-52.695312c0-6.460938-5.234375-11.703125-11.707031-11.703125h25.457031c6.460937 0 11.707031 5.242187 11.707031 11.703125zm0 0" fill="#1a5a84" data-original="#1A5A84" class="" style="fill:#135AA1" data-old_color="#145FA9"/><path d="m415.191406 338.632812v52.683594c0 6.460938-5.246094 11.703125-11.707031 11.703125h-25.457031c6.472656 0 11.707031-5.242187 11.707031-11.703125v-52.683594c0-6.460937-5.234375-11.703124-11.707031-11.703124h25.457031c6.460937 0 11.707031 5.242187 11.707031 11.703124zm0 0" fill="#1a5a84" data-original="#1A5A84" class="" style="fill:#135AA1" data-old_color="#145FA9"/><path d="m403.484375 511.996094h-391.28125c-6.464844 0-11.703125-5.242188-11.703125-11.707032v-52.683593c0-6.464844 5.238281-11.703125 11.703125-11.703125h391.285156c6.460938 0 11.703125 5.238281 11.703125 11.703125v52.683593c0 6.464844-5.242187 11.707032-11.707031 11.707032zm0 0" fill="#2c6a9b" data-original="#2C6A9B" class="" style="fill:#1976D2" data-old_color="#2C6A9B"/><path d="m415.191406 447.601562v52.695313c0 6.460937-5.246094 11.703125-11.707031 11.703125h-25.457031c6.472656 0 11.707031-5.246094 11.707031-11.703125v-52.695313c0-6.460937-5.234375-11.703124-11.707031-11.703124h25.457031c6.460937 0 11.707031 5.242187 11.707031 11.703124zm0 0" fill="#1a5a84" data-original="#1A5A84" class="" style="fill:#135AA1" data-old_color="#145FA9"/><path d="m277.316406 141.382812h-138.941406c-4.265625 0-7.726562-3.457031-7.726562-7.726562 0-4.265625 3.460937-7.722656 7.726562-7.722656h138.941406c4.265625 0 7.722656 3.457031 7.722656 7.722656 0 4.269531-3.457031 7.726562-7.722656 7.726562zm0 0" fill="#dceeef" data-original="#DCEEEF" class=""/><path d="m277.316406 168.121094h-138.941406c-4.265625 0-7.726562-3.460938-7.726562-7.726563s3.460937-7.726562 7.726562-7.726562h138.941406c4.265625 0 7.722656 3.460937 7.722656 7.726562s-3.457031 7.726563-7.722656 7.726563zm0 0" fill="#dceeef" data-original="#DCEEEF" class=""/><path d="m277.316406 250.359375h-138.941406c-4.265625 0-7.726562-3.460937-7.726562-7.726563 0-4.269531 3.460937-7.726562 7.726562-7.726562h138.941406c4.265625 0 7.722656 3.457031 7.722656 7.726562 0 4.265626-3.457031 7.726563-7.722656 7.726563zm0 0" fill="#dceeef" data-original="#DCEEEF" class=""/><path d="m277.316406 277.09375h-138.941406c-4.265625 0-7.726562-3.457031-7.726562-7.726562 0-4.265626 3.460937-7.722657 7.726562-7.722657h138.941406c4.265625 0 7.722656 3.457031 7.722656 7.722657 0 4.269531-3.457031 7.726562-7.722656 7.726562zm0 0" fill="#dceeef" data-original="#DCEEEF" class=""/><path d="m277.316406 359.332031h-138.941406c-4.265625 0-7.726562-3.460937-7.726562-7.726562s3.460937-7.726563 7.726562-7.726563h138.941406c4.265625 0 7.722656 3.460938 7.722656 7.726563s-3.457031 7.726562-7.722656 7.726562zm0 0" fill="#dceeef" data-original="#DCEEEF" class=""/><path d="m277.316406 386.066406h-138.941406c-4.265625 0-7.726562-3.457031-7.726562-7.722656 0-4.269531 3.460937-7.726562 7.726562-7.726562h138.941406c4.265625 0 7.722656 3.457031 7.722656 7.726562 0 4.265625-3.457031 7.722656-7.722656 7.722656zm0 0" fill="#dceeef" data-original="#DCEEEF" class=""/><path d="m308.113281 264.019531c-4.269531 0-7.726562-3.457031-7.726562-7.726562v-.585938c0-4.269531 3.457031-7.726562 7.726562-7.726562 4.265625 0 7.726563 3.457031 7.726563 7.726562v.585938c0 4.269531-3.460938 7.726562-7.726563 7.726562zm0 0" fill="#40e464" data-original="#40E464"/><path d="m332.300781 264.019531c-4.265625 0-7.726562-3.457031-7.726562-7.726562v-.585938c0-4.269531 3.460937-7.726562 7.726562-7.726562 4.269531 0 7.726563 3.457031 7.726563 7.726562v.585938c0 4.269531-3.457032 7.726562-7.726563 7.726562zm0 0" fill="#ff5d49" data-original="#FF5D49" class="" style="fill:#FF5D49"/><path d="m240.460938 90.1875h-65.230469c-5.691407 0-10.300781-4.613281-10.300781-10.300781v-31.53125c0-5.691407 4.609374-10.304688 10.300781-10.304688h65.230469c5.6875 0 10.300781 4.613281 10.300781 10.304688v31.53125c0 5.6875-4.613281 10.300781-10.300781 10.300781zm0 0" fill="#dceeef" data-original="#DCEEEF" class=""/><path d="m240.460938 473.949219h-65.230469c-5.691407 0-10.300781-4.613281-10.300781-10.304688v-31.53125c0-5.6875 4.609374-10.300781 10.300781-10.300781h65.230469c5.6875 0 10.300781 4.613281 10.300781 10.300781v31.53125c0 5.691407-4.613281 10.304688-10.300781 10.304688zm0 0" fill="#dceeef" data-original="#DCEEEF" class=""/></g> </svg>
