<?xml version="1.0"?>
<svg xmlns="http://www.w3.org/2000/svg" xmlns:xlink="http://www.w3.org/1999/xlink" version="1.1" id="Capa_1" x="0px" y="0px" viewBox="0 0 512 512" style="enable-background:new 0 0 512 512;" xml:space="preserve" width="512px" height="512px" class=""><g><path style="fill:#C0BCC1;" d="M485.25,69.58L265.868,1.496c-6.428-1.995-13.309-1.995-19.737,0L26.75,69.58  c-7.261,2.254-12.098,9.111-11.696,16.703c3.126,58.982,28.393,304.659,232.575,423.477c5.133,2.987,11.608,2.987,16.741,0  C468.553,390.941,493.82,145.264,496.946,86.283C497.348,78.69,492.511,71.833,485.25,69.58z" data-original="#C0BCC1" class=""/><g>
	<path style="fill:#AEA8AF;" d="M141.138,34.08L26.75,69.58c-7.261,2.254-12.098,9.111-11.696,16.703   C18.18,145.264,43.447,390.941,247.63,509.76c5.133,2.987,11.608,2.987,16.741,0c0.065-0.038,0.123-0.078,0.187-0.116   C166.18,353.22,144.952,145.309,141.138,34.08z" data-original="#AEA8AF" class=""/>
	<path style="fill:#AEA8AF;" d="M256,26.146c-3.349,0-6.669,0.503-9.868,1.496L59.759,85.482   c-11.405,3.54-18.731,14.733-17.419,26.616c8.351,75.632,44.54,262.593,199.84,364.912c4.1,2.701,8.878,4.128,13.82,4.128   c4.941,0,9.72-1.428,13.819-4.128c155.301-102.32,191.489-289.28,199.84-364.913c1.312-11.883-6.013-23.076-17.418-26.615   l-186.372-57.84C262.67,26.649,259.349,26.146,256,26.146L256,26.146z" data-original="#AEA8AF" class=""/>
</g><path style="fill:#9C969E;" d="M142.283,59.871L59.759,85.482c-11.405,3.54-18.731,14.733-17.419,26.616  c8.351,75.632,44.54,262.593,199.84,364.912c1.449,0.955,3.004,1.689,4.599,2.319C170.025,339.065,148.039,167.436,142.283,59.871z" data-original="#9C969E" class=""/><path style="fill:#1976D2" d="M251.339,463.109C102.936,365.334,67.382,187.206,58.887,110.271  c-0.439-3.98,1.982-7.702,5.806-8.889l186.372-57.84c3.214-0.997,6.655-0.997,9.869,0l186.372,57.84  c3.824,1.187,6.246,4.909,5.806,8.889c-8.494,76.936-44.049,255.063-192.452,352.838  C257.863,464.952,254.137,464.952,251.339,463.109z" data-original="#00AAF0" class="" data-old_color="#00AAF0"/><path style="fill:#42A5F5" d="M256,68.156l170.62,52.952C416.488,195.854,380.798,347.886,256,436.062  C131.21,347.891,95.515,195.859,85.38,121.108L256,68.156" data-original="#00C3FF" class="active-path" data-old_color="#00C3FF"/><g>
	<path style="fill:#B2EDFF;" d="M337.806,264.792c-6.665,0-12.941,2.601-17.655,7.316l-48.512,48.512   c-4.715,4.715-7.316,10.99-7.316,17.655v26.402c0,18.363-14.932,33.295-33.295,33.295h-54.3   c4.976,5.652,10.158,11.205,15.554,16.647h38.746c27.54,0,49.942-22.402,49.942-49.942v-26.402c0-2.187,0.886-4.333,2.439-5.885   l48.512-48.512c1.553-1.553,3.699-2.439,5.885-2.439h70.405c2.428-5.571,4.743-11.122,6.929-16.647H337.806z" data-original="#B2EDFF"/>
	<path style="fill:#B2EDFF;" d="M429.709,223.174h-108.55c-6.665,0-12.941,2.601-17.655,7.316l-23.54,23.54   c-1.553,1.553-3.699,2.439-5.885,2.439h-34.725c-4.601,0-8.324,3.723-8.324,8.324s3.723,8.324,8.324,8.324h34.725   c6.665,0,12.941-2.601,17.655-7.316l23.54-23.54c1.553-1.553,3.699-2.439,5.885-2.439h103.166   C426.239,234.209,428.021,228.663,429.709,223.174z" data-original="#B2EDFF"/>
	<path style="fill:#B2EDFF;" d="M440.906,181.555H289.295c-4.601,0-8.324,3.723-8.324,8.324s3.723,8.324,8.324,8.324h147.513   C438.284,192.538,439.65,186.985,440.906,181.555z" data-original="#B2EDFF"/>
	<path style="fill:#B2EDFF;" d="M412.72,114.965c-6.665,0-12.941,2.601-17.655,7.316l-15.217,15.217   c-1.553,1.553-3.699,2.439-5.885,2.439h-59.697V60.093l-16.647-5.167v85.011c0,9.177,7.47,16.647,16.647,16.647h59.697   c6.665,0,12.941-2.601,17.655-7.316l15.217-15.217c1.553-1.553,3.699-2.439,5.885-2.439h37.626   c0.871-5.921,1.603-11.478,2.217-16.647L412.72,114.965L412.72,114.965z" data-original="#B2EDFF"/>
	<path style="fill:#B2EDFF;" d="M222.705,364.677v-26.402c0-6.665-2.601-12.941-7.316-17.655l-40.188-40.188   c-1.553-1.553-2.439-3.699-2.439-5.885v-34.725c0-4.601-3.723-8.324-8.324-8.324s-8.324,3.723-8.324,8.324v34.725   c0,6.665,2.601,12.941,7.316,17.655l40.188,40.188c1.553,1.553,2.439,3.699,2.439,5.885v26.402h-55.685   c3.981,5.615,8.173,11.157,12.499,16.647h43.185C215.235,381.324,222.705,373.854,222.705,364.677z" data-original="#B2EDFF"/>
	<path style="fill:#B2EDFF;" d="M122.821,83.342v67.771c0,6.674-2.601,12.949-7.316,17.663L77.482,206.8   c1.646,5.953,3.456,12.033,5.366,18.175l44.427-44.427c7.86-7.86,12.193-18.314,12.193-29.434V78.175L122.821,83.342z" data-original="#B2EDFF"/>
	<path style="fill:#B2EDFF;" d="M222.705,81.671V52.343l-16.647,5.166V81.67c0,4.593-3.731,8.324-8.324,8.324   s-8.324-3.731-8.324-8.324V62.676l-16.647,5.166V81.67c0,13.77,11.201,24.971,24.971,24.971S222.705,95.44,222.705,81.671z" data-original="#B2EDFF"/>
	<path style="fill:#B2EDFF;" d="M253.561,122.281l-23.54,23.54c-1.553,1.553-3.699,2.439-5.885,2.439h-26.402   c-4.601,0-8.324,3.723-8.324,8.324s3.723,8.324,8.324,8.324h26.402c6.665,0,12.941-2.601,17.655-7.316l23.54-23.54   c4.715-4.715,7.316-10.99,7.316-17.655v-69.22l-11.713-3.635c-1.607-0.499-3.271-0.748-4.935-0.748v73.603   C256,118.583,255.114,120.729,253.561,122.281z" data-original="#B2EDFF"/>
</g><path style="fill:#AEA8AF;" d="M164.439,248.145c-13.77,0-24.971-11.201-24.971-24.971s11.201-24.971,24.971-24.971  s24.971,11.201,24.971,24.971S178.209,248.145,164.439,248.145z" data-original="#AEA8AF" class=""/><path style="fill:#5D5360" d="M164.439,214.85c-4.593,0-8.324,3.731-8.324,8.324s3.731,8.324,8.324,8.324s8.324-3.731,8.324-8.324  S169.032,214.85,164.439,214.85z" data-original="#5D5360" class=""/><path style="fill:#AEA8AF;" d="M222.705,289.763c-13.77,0-24.971-11.201-24.971-24.971c0-13.77,11.201-24.971,24.971-24.971  s24.971,11.201,24.971,24.971C247.676,278.562,236.475,289.763,222.705,289.763z" data-original="#AEA8AF" class=""/><path style="fill:#5D5360" d="M222.705,256.468c-4.593,0-8.324,3.731-8.324,8.324c0,4.593,3.731,8.324,8.324,8.324  s8.324-3.731,8.324-8.324C231.029,260.199,227.298,256.468,222.705,256.468z" data-original="#5D5360" class=""/><path style="fill:#AEA8AF;" d="M272.647,214.85c-13.77,0-24.971-11.201-24.971-24.971s11.201-24.971,24.971-24.971  c13.77,0,24.971,11.201,24.971,24.971S286.417,214.85,272.647,214.85z" data-original="#AEA8AF" class=""/><path style="fill:#5D5360" d="M272.647,181.555c-4.593,0-8.324,3.731-8.324,8.324s3.731,8.324,8.324,8.324  c4.593,0,8.324-3.731,8.324-8.324S277.24,181.555,272.647,181.555z" data-original="#5D5360" class=""/><path style="fill:#AEA8AF;" d="M181.087,181.555c-13.77,0-24.971-11.201-24.971-24.971s11.201-24.971,24.971-24.971  s24.971,11.201,24.971,24.971C206.058,170.354,194.857,181.555,181.087,181.555z" data-original="#AEA8AF" class=""/><path style="fill:#5D5360" d="M181.087,148.26c-4.593,0-8.324,3.731-8.324,8.324s3.731,8.324,8.324,8.324s8.324-3.731,8.324-8.324  C189.41,151.991,185.679,148.26,181.087,148.26z" data-original="#5D5360" class=""/></g> </svg>
