<svg viewBox="0 -32 512 512" xmlns="http://www.w3.org/2000/svg"><path d="m405.519531 160.445312c-39.40625-36.128906-100.625-33.460937-136.742187 5.953126l142.695312 130.832031c36.117188-39.417969 33.449219-100.660157-5.953125-136.785157zm0 0" fill="#78b9c8"/><path d="m117.457031 172.941406c-55.699219 35.53125-72.0625 109.5-36.542969 165.21875l201.707032-128.664062c-35.515625-55.71875-109.464844-72.085938-165.164063-36.554688zm0 0" fill="#78b9c8"/><path d="m405.140625 234.070312c-12.269531 0-24.050781 2.074219-35.027344 5.882813-22.632812-54.175781-76.109375-92.25-138.480469-92.25-80.875 0-103.921874 83.925781-107.03125 164.066406-1.230468-.054687-45.335937-20-46.582031-20-43.089843 0-78.019531 34.945313-78.019531 78.046875 0 43.101563 34.929688 78.042969 78.019531 78.042969h327.121094c59.015625 0 106.859375-47.855469 106.859375-106.894531 0-59.035156-47.84375-106.894532-106.859375-106.894532zm0 0" fill="#b9ebff"/><path d="m353.445312 0h-211.09375c-21.039062 0-38.351562 17.195312-38.351562 38.234375v249.035156c0 21.039063 17.3125 37.730469 38.351562 37.730469h211.09375c21.039063 0 38.554688-16.691406 38.554688-37.730469v-249.035156c0-21.039063-17.515625-38.234375-38.554688-38.234375zm0 0" fill="#707384"/><path d="m391.542969 81.445312h-287.285157v-43.210937c0-21.039063 17.054688-38.09375 38.09375-38.09375h211.09375c21.039063 0 38.097657 17.054687 38.097657 38.09375zm0 0" fill="#707384"/><path d="m104.257812 81.445312h287.285157v81.308594h-287.285157zm0 0" fill="#5b5c6c"/><path d="m104.257812 162.753906h287.285157v81.304688h-287.285157zm0 0" fill="#707384"/><path d="m353.445312 325.367188h-211.09375c-21.039062 0-38.09375-17.058594-38.09375-38.097657v-43.210937h287.285157v43.210937c0 21.039063-17.058594 38.097657-38.097657 38.097657zm0 0" fill="#5b5c6c"/><path d="m391.539062 38.242188v43.207031h-45.617187v-43.207031c0-21.046876-17.046875-38.101563-38.089844-38.101563h45.617188c21.042969 0 38.089843 17.054687 38.089843 38.101563zm0 0" fill="#5b5c6c"/><path d="m345.921875 81.449219h45.617187v81.300781h-45.617187zm0 0" fill="#3b3b47"/><path d="m345.921875 162.75h45.617187v81.308594h-45.617187zm0 0" fill="#5b5c6c"/><path d="m391.539062 244.058594v43.207031c0 21.039063-17.050781 38.101563-38.089843 38.101563h-45.617188c21.042969 0 38.089844-17.0625 38.089844-38.101563v-43.207031zm0 0" fill="#3b3b47"/><path d="m151.019531 40.792969c0 4.445312-3.605469 8.050781-8.050781 8.050781s-8.046875-3.605469-8.046875-8.050781c0-4.445313 3.601563-8.050781 8.046875-8.050781s8.050781 3.605468 8.050781 8.050781zm0 0" fill="#ff6469"/><path d="m180.675781 40.792969c0 4.445312-3.605469 8.050781-8.050781 8.050781s-8.050781-3.605469-8.050781-8.050781c0-4.445313 3.605469-8.050781 8.050781-8.050781s8.050781 3.605468 8.050781 8.050781zm0 0" fill="#ffb96a"/><path d="m210.332031 40.792969c0 4.445312-3.605469 8.050781-8.050781 8.050781s-8.050781-3.605469-8.050781-8.050781c0-4.445313 3.605469-8.050781 8.050781-8.050781s8.050781 3.605468 8.050781 8.050781zm0 0" fill="#a7d16c"/><path d="m151.019531 122.097656c0 4.445313-3.605469 8.050782-8.050781 8.050782s-8.046875-3.605469-8.046875-8.050782c0-4.445312 3.601563-8.046875 8.046875-8.046875s8.050781 3.601563 8.050781 8.046875zm0 0" fill="#ff6469"/><path d="m180.675781 122.097656c0 4.445313-3.605469 8.050782-8.050781 8.050782s-8.050781-3.605469-8.050781-8.050782c0-4.445312 3.605469-8.046875 8.050781-8.046875s8.050781 3.601563 8.050781 8.046875zm0 0" fill="#ffb96a"/><path d="m210.332031 122.097656c0 4.445313-3.605469 8.050782-8.050781 8.050782s-8.050781-3.605469-8.050781-8.050782c0-4.445312 3.605469-8.046875 8.050781-8.046875s8.050781 3.601563 8.050781 8.046875zm0 0" fill="#a7d16c"/><path d="m151.019531 203.40625c0 4.445312-3.605469 8.050781-8.050781 8.050781s-8.046875-3.605469-8.046875-8.050781 3.601563-8.050781 8.046875-8.050781 8.050781 3.605469 8.050781 8.050781zm0 0" fill="#ff6469"/><path d="m180.675781 203.40625c0 4.445312-3.605469 8.050781-8.050781 8.050781s-8.050781-3.605469-8.050781-8.050781 3.605469-8.050781 8.050781-8.050781 8.050781 3.605469 8.050781 8.050781zm0 0" fill="#ffb96a"/><path d="m210.332031 203.40625c0 4.445312-3.605469 8.050781-8.050781 8.050781s-8.050781-3.605469-8.050781-8.050781 3.605469-8.050781 8.050781-8.050781 8.050781 3.605469 8.050781 8.050781zm0 0" fill="#a7d16c"/><path d="m151.019531 284.710938c0 4.445312-3.605469 8.050781-8.050781 8.050781s-8.046875-3.605469-8.046875-8.050781c0-4.445313 3.601563-8.050782 8.046875-8.050782s8.050781 3.605469 8.050781 8.050782zm0 0" fill="#ff6469"/><path d="m180.675781 284.710938c0 4.445312-3.605469 8.050781-8.050781 8.050781s-8.050781-3.605469-8.050781-8.050781c0-4.445313 3.605469-8.050782 8.050781-8.050782s8.050781 3.605469 8.050781 8.050782zm0 0" fill="#ffb96a"/><path d="m210.332031 284.710938c0 4.445312-3.605469 8.050781-8.050781 8.050781s-8.050781-3.605469-8.050781-8.050781c0-4.445313 3.605469-8.050782 8.050781-8.050782s8.050781 3.605469 8.050781 8.050782zm0 0" fill="#a7d16c"/><g fill="#e4eaf7"><path d="m354.089844 48.59375h-39.703125c-4.308594 0-7.796875-3.492188-7.796875-7.800781 0-4.308594 3.488281-7.800781 7.796875-7.800781h39.703125c4.308594 0 7.796875 3.492187 7.796875 7.800781 0 4.308593-3.488281 7.800781-7.796875 7.800781zm0 0"/><path d="m354.089844 129.898438h-39.703125c-4.308594 0-7.796875-3.492188-7.796875-7.800782s3.488281-7.796875 7.796875-7.796875h39.703125c4.308594 0 7.796875 3.488281 7.796875 7.796875s-3.488281 7.800782-7.796875 7.800782zm0 0"/><path d="m354.089844 211.203125h-39.703125c-4.308594 0-7.796875-3.488281-7.796875-7.796875s3.488281-7.800781 7.796875-7.800781h39.703125c4.308594 0 7.796875 3.492187 7.796875 7.800781s-3.488281 7.796875-7.796875 7.796875zm0 0"/><path d="m354.089844 292.511719h-39.703125c-4.308594 0-7.796875-3.492188-7.796875-7.800781 0-4.308594 3.488281-7.796876 7.796875-7.796876h39.703125c4.308594 0 7.796875 3.488282 7.796875 7.796876 0 4.308593-3.488281 7.800781-7.796875 7.800781zm0 0"/></g><path d="m318.019531 340.972656h193.980469c0-59.035156-47.84375-106.894531-106.859375-106.894531-49.734375 0-91.53125 33.984375-103.453125 80.003906-.289062 1.121094-.5625 2.257813-.816406 3.394531-19.445313-20.199218-46.742188-32.765624-76.980469-32.765624-6.761719 0-13.363281.625-19.773437 1.824218-6.289063 1.183594-12.375 2.902344-18.222657 5.132813-17.613281 6.699219-32.992187 17.941406-44.734375 32.273437-.007812.007813-.011718.015625-.019531.023438-14.183594-19.503906-37.164063-32.195313-63.121094-32.195313l78.023438 78.046875c0-12.855468-3.128907-24.972656-8.632813-35.667968l172.785156 11.070312c-.691406-1.433594-1.421874-2.847656-2.175781-4.246094zm0 0" fill="#b9ebff"/><path d="m405.140625 234.078125c-49.734375 0-91.53125 33.984375-103.453125 80.003906-.691406 2.667969-1.269531 5.382813-1.753906 8.128907 1.105468.804687 2.167968 1.671874 3.148437 2.605468 13.523438-43.527344 54.09375-75.140625 102.058594-75.140625 53.71875 0 98.175781 39.65625 105.722656 91.296875h1.136719c0-59.035156-47.84375-106.894531-106.859375-106.894531zm0 0" fill="#a0dcf0"/><path d="m185.894531 307.496094c5.847657-2.234375 11.933594-3.949219 18.222657-5.132813 6.410156-1.203125 13.011718-1.824219 19.773437-1.824219 28.105469 0 58.039063 13.636719 80.507813 37.339844 4.050781 4.273438 9.511718 6.941406 15.390624 7.316406l.40625.027344c-3.410156-7.085937-7.585937-13.742187-12.425781-19.851562-1.921875-2.4375-3.953125-4.789063-6.078125-7.042969-19.488281-20.699219-47.136718-33.613281-77.800781-33.613281-6.761719 0-13.363281.621094-19.769531 1.824218-6.289063 1.179688-12.375 2.898438-18.226563 5.132813-17.613281 6.695313-32.992187 17.9375-44.734375 32.269531-.34375.421875-.6875.847656-1.03125 1.28125-4.28125 5.410156-2.628906 1.90625-5.816406 8.089844l11.871094.761719c10.972656-11.621094 24.507812-20.796875 39.710937-26.578125zm0 0" fill="#a0dcf0"/><path d="m155.488281 369.261719.554688.554687c0-43.101562-34.933594-78.046875-78.023438-78.046875l-14.335937 1.316407c3.132812 2.292968 6.789062 3.785156 10.632812 4.324218 42.570313 5.945313 56.296875 30.5625 65.316406 49.394532 3.984376 8.328124 9.328126 15.929687 15.855469 22.457031zm0 0" fill="#a0dcf0"/></svg>